<?xml version="1.0" encoding="UTF-8" standalone="no"?>
<svg width="100%" height="100%" viewBox="0 0 144 205" version="1.1" xmlns="http://www.w3.org/2000/svg" xmlns:xlink="http://www.w3.org/1999/xlink" xml:space="preserve" xmlns:serif="http://www.serif.com/" style="fill-rule:evenodd;clip-rule:evenodd;stroke-linejoin:round;stroke-miterlimit:2;">
    <g id="Artboard1" transform="matrix(0.701123,0,0,1,0,0)">
        <rect x="0" y="0" width="204.8" height="204.8" style="fill:none;"/>
        <g id="path10000" transform="matrix(0.513063,0,0,0.35972,-131.555,-50.8788)">
            <path d="M372.669,373.59C357.564,373.59 342.55,379.81 331.868,390.491C325.138,397.221 320.185,405.67 317.437,414.778C310.834,416.024 304.598,419.247 299.843,424.002C293.645,430.2 290.037,438.909 290.037,447.674C290.037,456.439 293.645,465.15 299.843,471.348C306.041,477.546 314.752,481.154 323.517,481.154L473.467,481.154C479.061,481.154 484.623,478.852 488.579,474.896C492.535,470.94 494.837,465.378 494.837,459.784C494.837,454.189 492.535,448.63 488.579,444.674C484.647,440.742 479.129,438.447 473.57,438.419C472.485,428.282 467.892,418.525 460.678,411.311C452.37,403.003 440.694,398.166 428.945,398.166C426.093,398.166 423.246,398.458 420.45,399.009C418.403,395.955 416.072,393.093 413.471,390.491C402.789,379.81 387.775,373.59 372.669,373.59Z" style="fill:rgb(235,201,201);fill-opacity:0.4;fill-rule:nonzero;"/>
        </g>
        <g id="path100001" serif:id="path10000" transform="matrix(0.352132,0,0,0.214447,-80.4107,57.6145)">
            <path d="M372.669,373.59C357.564,373.59 342.55,379.81 331.868,390.491C325.138,397.221 320.185,405.67 317.437,414.778C310.834,416.024 304.598,419.247 299.843,424.002C293.645,430.2 290.037,438.909 290.037,447.674C290.037,456.439 293.645,465.15 299.843,471.348C306.041,477.546 314.752,481.154 323.517,481.154L473.467,481.154C479.061,481.154 484.623,478.852 488.579,474.896C492.535,470.94 494.837,465.378 494.837,459.784C494.837,454.189 492.535,448.63 488.579,444.674C484.647,440.742 479.129,438.447 473.57,438.419C472.485,428.282 467.892,418.525 460.678,411.311C452.37,403.003 440.694,398.166 428.945,398.166C426.093,398.166 423.246,398.458 420.45,399.009C418.403,395.955 416.072,393.093 413.471,390.491C402.789,379.81 387.775,373.59 372.669,373.59Z" style="fill:rgb(235,201,201);fill-opacity:0.3;fill-rule:nonzero;"/>
        </g>
        <g id="path100002" serif:id="path10000" transform="matrix(0.509089,0,0,0.356934,-136.375,-116.752)">
            <path d="M372.669,373.59C357.564,373.59 342.55,379.81 331.868,390.491C325.138,397.221 320.185,405.67 317.437,414.778C310.834,416.024 304.598,419.247 299.843,424.002C293.645,430.2 290.037,438.909 290.037,447.674C290.037,456.439 293.645,465.15 299.843,471.348C306.041,477.546 314.752,481.154 323.517,481.154L473.467,481.154C479.061,481.154 484.623,478.852 488.579,474.896C492.535,470.94 494.837,465.378 494.837,459.784C494.837,454.189 492.535,448.63 488.579,444.674C484.647,440.742 479.129,438.447 473.57,438.419C472.485,428.282 467.892,418.525 460.678,411.311C452.37,403.003 440.694,398.166 428.945,398.166C426.093,398.166 423.246,398.458 420.45,399.009C418.403,395.955 416.072,393.093 413.471,390.491C402.789,379.81 387.775,373.59 372.669,373.59Z" style="fill:rgb(235,201,201);fill-opacity:0.4;fill-rule:nonzero;"/>
        </g>
        <g id="path100003" serif:id="path10000" transform="matrix(0.564087,0,0,0.395493,-105.827,5.86525)">
            <path d="M372.669,373.59C357.564,373.59 342.55,379.81 331.868,390.491C325.138,397.221 320.185,405.67 317.437,414.778C310.834,416.024 304.598,419.247 299.843,424.002C293.645,430.2 290.037,438.909 290.037,447.674C290.037,456.439 293.645,465.15 299.843,471.348C306.041,477.546 314.752,481.154 323.517,481.154L473.467,481.154C479.061,481.154 484.623,478.852 488.579,474.896C492.535,470.94 494.837,465.378 494.837,459.784C494.837,454.189 492.535,448.63 488.579,444.674C484.647,440.742 479.129,438.447 473.57,438.419C472.485,428.282 467.892,418.525 460.678,411.311C452.37,403.003 440.694,398.166 428.945,398.166C426.093,398.166 423.246,398.458 420.45,399.009C418.403,395.955 416.072,393.093 413.471,390.491C402.789,379.81 387.775,373.59 372.669,373.59Z" style="fill:rgb(235,201,201);fill-opacity:0.3;fill-rule:nonzero;"/>
        </g>
        <g id="path100004" serif:id="path10000" transform="matrix(0.411267,0,0,0.265148,-32.7767,-44.068)">
            <path d="M372.669,373.59C357.564,373.59 342.55,379.81 331.868,390.491C325.138,397.221 320.185,405.67 317.437,414.778C310.834,416.024 304.598,419.247 299.843,424.002C293.645,430.2 290.037,438.909 290.037,447.674C290.037,456.439 293.645,465.15 299.843,471.348C306.041,477.546 314.752,481.154 323.517,481.154L473.467,481.154C479.061,481.154 484.623,478.852 488.579,474.896C492.535,470.94 494.837,465.378 494.837,459.784C494.837,454.189 492.535,448.63 488.579,444.674C484.647,440.742 479.129,438.447 473.57,438.419C472.485,428.282 467.892,418.525 460.678,411.311C452.37,403.003 440.694,398.166 428.945,398.166C426.093,398.166 423.246,398.458 420.45,399.009C418.403,395.955 416.072,393.093 413.471,390.491C402.789,379.81 387.775,373.59 372.669,373.59Z" style="fill:rgb(235,201,201);fill-opacity:0.3;fill-rule:nonzero;"/>
        </g>
        <g id="path100005" serif:id="path10000" transform="matrix(0.332231,0,0,0.232935,1.91931,22.6521)">
            <path d="M372.669,373.59C357.564,373.59 342.55,379.81 331.868,390.491C325.138,397.221 320.185,405.67 317.437,414.778C310.834,416.024 304.598,419.247 299.843,424.002C293.645,430.2 290.037,438.909 290.037,447.674C290.037,456.439 293.645,465.15 299.843,471.348C306.041,477.546 314.752,481.154 323.517,481.154L473.467,481.154C479.061,481.154 484.623,478.852 488.579,474.896C492.535,470.94 494.837,465.378 494.837,459.784C494.837,454.189 492.535,448.63 488.579,444.674C484.647,440.742 479.129,438.447 473.57,438.419C472.485,428.282 467.892,418.525 460.678,411.311C452.37,403.003 440.694,398.166 428.945,398.166C426.093,398.166 423.246,398.458 420.45,399.009C418.403,395.955 416.072,393.093 413.471,390.491C402.789,379.81 387.775,373.59 372.669,373.59Z" style="fill:rgb(235,201,201);fill-opacity:0.3;fill-rule:nonzero;"/>
        </g>
    </g>
</svg>
